HIERARCHY
ROOT Hips
{
	OFFSET -13.091600 -28.302996 44.698402
	CHANNELS 6 Xposition Yposition Zposition Zrotation Xrotation Yrotation
	JOINT Chest
	{
		OFFSET -0.673000 0.623899 5.369202
		CHANNELS 6 Xposition Yposition Zposition Zrotation Xrotation Yrotation
		JOINT Chest2
		{
			OFFSET 0.000000 0.000000 4.415001
			CHANNELS 6 Xposition Yposition Zposition Zrotation Xrotation Yrotation
			JOINT Neck
			{
				OFFSET 0.000000 0.000002 10.273300
				CHANNELS 6 Xposition Yposition Zposition Zrotation Xrotation Yrotation
				JOINT Head
				{
					OFFSET 0.000000 0.000000 2.173897
					CHANNELS 6 Xposition Yposition Zposition Zrotation Xrotation Yrotation
					End Site
					{
						OFFSET 0.000000 0.000000 9.961800
					}
				}
			}
			JOINT LeftCollar
			{
				OFFSET 2.359900 -0.565201 5.928101
				CHANNELS 6 Xposition Yposition Zposition Zrotation Xrotation Yrotation
				JOINT LeftShoulder
				{
					OFFSET 5.443700 0.000000 0.000000
					CHANNELS 6 Xposition Yposition Zposition Zrotation Xrotation Yrotation
					JOINT LeftElbow
					{
						OFFSET 0.000000 0.000000 -10.615799
						CHANNELS 6 Xposition Yposition Zposition Zrotation Xrotation Yrotation
						JOINT LeftWrist
						{
							OFFSET 0.000000 -0.000002 -13.110302
							CHANNELS 6 Xposition Yposition Zposition Zrotation Xrotation Yrotation
							End Site
							{
								OFFSET 0.000000 0.000000 -2.173901
							}
						}
					}
				}
			}
			JOINT RightCollar
			{
				OFFSET -2.636600 -1.718800 6.889698
				CHANNELS 6 Xposition Yposition Zposition Zrotation Xrotation Yrotation
				JOINT RightShoulder
				{
					OFFSET -4.139101 0.000000 0.000000
					CHANNELS 6 Xposition Yposition Zposition Zrotation Xrotation Yrotation
					JOINT RightElbow
					{
						OFFSET 0.000000 0.000000 -10.471802
						CHANNELS 6 Xposition Yposition Zposition Zrotation Xrotation Yrotation
						JOINT RightWrist
						{
							OFFSET 0.000000 0.000000 -12.281898
							CHANNELS 6 Xposition Yposition Zposition Zrotation Xrotation Yrotation
							End Site
							{
								OFFSET 0.000000 -0.000002 -2.173901
							}
						}
					}
				}
			}
		}
	}
	JOINT LeftHip
	{
		OFFSET 2.273400 0.176701 -2.518002
		CHANNELS 6 Xposition Yposition Zposition Zrotation Xrotation Yrotation
		JOINT LeftKnee
		{
			OFFSET 0.000000 -0.000002 -20.456402
			CHANNELS 6 Xposition Yposition Zposition Zrotation Xrotation Yrotation
			JOINT LeftAnkle
			{
				OFFSET 0.000000 -0.000002 -16.635300
				CHANNELS 6 Xposition Yposition Zposition Zrotation Xrotation Yrotation
				End Site
				{
					OFFSET 0.000000 -8.812399 0.000001
				}
			}
		}
	}
	JOINT RightHip
	{
		OFFSET -1.914800 0.018101 -2.699299
		CHANNELS 6 Xposition Yposition Zposition Zrotation Xrotation Yrotation
		JOINT RightKnee
		{
			OFFSET 0.000000 -0.000002 -20.148901
			CHANNELS 6 Xposition Yposition Zposition Zrotation Xrotation Yrotation
			JOINT RightAnkle
			{
				OFFSET 0.000000 -0.000002 -16.838301
				CHANNELS 6 Xposition Yposition Zposition Zrotation Xrotation Yrotation
				End Site
				{
					OFFSET 0.000000 -8.328398 0.000001
				}
			}
		}
	}
}
MOTION
Frames: 10
Frame Time: 0.041667
-3.535400 -6.930696 39.745800 2853.623092 -4.200021 -4.242774 -0.672999 0.623898 5.369212 25.902316 15.496512 0.604656 -0.000000 -0.000002 4.415012 -17.149078 -5.480812 -1.866263 0.000001 -0.000003 10.273293 12.261092 6.217439 0.435978 0.000000 -0.000006 2.173901 0.915417 -4.402443 2.012297 2.359900 -0.565202 5.928092 10.741747 2.277693 -11.516963 5.443691 -0.000005 0.000000 -12.851239 395.198980 -68.198988 -0.000006 -0.000010 -10.615793 892.073522 -188.677514 180.251151 0.000002 -0.000003 -13.110295 -2233.584857 166.316950 -192.754550 -2.636602 -1.718803 6.889694 176.719561 -176.745201 164.996347 -4.139105 -0.000006 0.000001 185.806772 -155.187444 588.418502 -0.000002 -0.000004 -10.471797 -1.600477 2.133887 -356.172290 -0.000002 -0.000005 -12.281900 -18.179602 13.447993 24.415058 2.273399 0.176702 -2.517999 -490.136506 -142.073754 -157.204331 0.000002 -0.000001 -20.456398 796.695121 135.678962 -105.242478 -0.000007 -0.000005 -16.635298 -302.478752 7.168480 29.995367 -1.914801 0.018106 -2.699303 102.060313 212.658855 127.367687 -0.000001 -0.000003 -20.148903 -775.024789 -248.676915 109.994650 0.000000 -0.000001 -16.838299 1046.792060 9.633710 -2.348237
-3.393498 -7.225798 39.900303 2855.746679 -4.235861 -3.990938 -0.673002 0.623893 5.369205 23.907040 14.973668 -0.635643 0.000001 -0.000004 4.415006 -12.900156 -5.629452 -1.473767 -0.000001 -0.000002 10.273301 8.764236 6.466553 1.609643 -0.000001 -0.000003 2.173903 0.631257 -4.362006 1.643440 2.359899 -0.565204 5.928097 10.355135 0.839200 -13.187540 5.443698 -0.000004 0.000001 -7.510345 394.114237 -75.341706 -0.000003 -0.000006 -10.615794 894.643640 -190.467297 179.270855 0.000003 -0.000006 -13.110295 -2230.723390 166.991882 -198.893934 -2.636604 -1.718803 6.889697 177.834193 -179.295717 164.355416 -4.139100 -0.000001 -0.000004 191.169099 -144.867042 594.072478 0.000001 -0.000003 -10.471810 -1.840639 0.815744 -357.395987 -0.000004 0.000001 -12.281897 -12.932775 12.591544 26.031965 2.273398 0.176703 -2.518002 -494.287786 -142.302565 -158.644339 -0.000001 -0.000001 -20.456398 799.701006 135.548560 -106.640140 -0.000009 -0.000005 -16.635300 -302.771494 7.122323 29.836493 -1.914803 0.018106 -2.699298 96.845464 211.993690 120.925658 0.000003 -0.000008 -20.148897 -807.433654 -252.591843 139.508048 -0.000001 -0.000003 -16.838299 1054.660110 9.671153 0.033798
-3.303800 -7.463795 40.184006 2858.828679 -4.279982 -3.486460 -0.672999 0.623898 5.369196 20.987846 14.514234 -2.023607 0.000002 -0.000003 4.415010 -7.847517 -5.607283 -1.043947 -0.000001 0.000001 10.273301 4.641848 6.368752 2.931464 -0.000000 -0.000003 2.173904 0.291494 -4.333263 1.150496 2.359899 -0.565201 5.928100 11.166944 0.940957 -14.852139 5.443701 -0.000004 -0.000004 -3.414857 372.373062 -86.020803 0.000003 -0.000001 -10.615795 897.294300 -192.650540 180.639201 0.000007 -0.000002 -13.110298 -2251.141613 170.413233 -197.700754 -2.636602 -1.718802 6.889701 178.237584 -176.738576 165.404082 -4.139093 -0.000002 -0.000005 195.235398 -140.365701 598.212228 0.000000 -0.000001 -10.471799 -2.374852 -0.665589 -358.259596 0.000001 -0.000004 -12.281895 -8.123504 12.001289 26.534552 2.273401 0.176703 -2.518010 -498.690635 -142.781867 -160.202770 0.000001 -0.000003 -20.456396 803.226968 135.472376 -108.984998 -0.000006 -0.000002 -16.635300 -303.619257 7.225108 29.355262 -1.914797 0.018106 -2.699306 91.229218 210.801850 114.823280 0.000002 -0.000004 -20.148905 -834.667913 -250.554944 164.069531 -0.000001 -0.000003 -16.838303 1061.762851 9.628757 1.352848
-3.289000 -7.650093 40.614704 2862.833684 -4.316230 -2.769393 -0.673002 0.623899 5.369211 17.172470 14.178390 -3.459206 0.000002 0.000000 4.415011 -2.110040 -5.452716 -0.566667 -0.000002 -0.000002 10.273308 0.873630 6.087622 3.730876 0.000000 -0.000006 2.173902 -1.322104 -4.514929 1.494537 2.359900 -0.565202 5.928108 11.963557 0.474840 -16.393757 5.443697 -0.000001 -0.000001 -5.564581 339.630391 -96.417901 -0.000006 -0.000003 -10.615787 902.142532 -190.789669 182.685239 0.000001 -0.000006 -13.110294 -2286.596961 174.828705 -200.362944 -2.636607 -1.718802 6.889710 179.628661 -179.830985 165.211348 -4.139098 -0.000002 -0.000002 203.509844 -132.117469 608.075896 0.000000 -0.000003 -10.471801 -3.474761 -1.959150 -358.892071 0.000002 -0.000004 -12.281901 -4.498758 11.931132 27.757505 2.273399 0.176705 -2.518003 -502.566958 -143.660229 -161.540585 0.000001 -0.000001 -20.456398 806.800578 135.399321 -112.263824 -0.000006 -0.000003 -16.635302 -305.246973 7.573460 28.419685 -1.914799 0.018103 -2.699299 85.429841 209.336228 108.979234 0.000006 -0.000002 -20.148905 -846.526269 -247.024283 174.430874 -0.000000 0.000000 -16.838301 1067.341640 9.654325 2.062122
-3.363297 -7.782890 41.199207 2867.300518 -4.303106 -1.875939 -0.673000 0.623900 5.369200 12.926538 13.981348 -4.909220 0.000001 -0.000003 4.415002 4.136229 -5.216875 -0.069674 -0.000002 0.000002 10.273300 -5.010097 5.458117 5.509941 -0.000001 -0.000003 2.173902 -0.847944 -4.338737 0.084635 2.359900 -0.565200 5.928092 12.572131 0.028408 -17.201370 5.443701 -0.000006 0.000002 -12.033747 330.107523 -103.679430 0.000000 -0.000004 -10.615801 908.035729 -188.050571 181.015627 0.000004 -0.000006 -13.110299 -2301.339460 173.971339 -200.954547 -2.636605 -1.718800 6.889694 180.341965 -180.841744 168.326706 -4.139101 0.000001 0.000006 209.258377 -126.747219 614.583318 0.000001 -0.000004 -10.471798 -5.511128 -3.142041 -359.373873 -0.000000 -0.000010 -12.281899 -2.034778 11.888409 28.425444 2.273402 0.176705 -2.518014 -505.900364 -144.891043 -162.923070 0.000003 -0.000003 -20.456394 811.003275 135.262703 -116.761032 -0.000005 -0.000006 -16.635300 -307.794470 8.339565 27.073625 -1.914797 0.018109 -2.699306 79.911861 207.757648 103.208735 0.000009 -0.000003 -20.148901 -849.105458 -244.931239 177.217645 0.000004 -0.000002 -16.838297 1070.923282 9.907247 2.696532
-3.528300 -7.878494 41.951805 2872.781062 -4.151091 -0.833066 -0.673002 0.623899 5.369208 7.678186 13.873969 -6.175944 0.000001 -0.000002 4.415002 10.532264 -4.841966 0.380016 -0.000000 -0.000001 10.273318 -10.990163 4.601619 7.033204 -0.000001 -0.000004 2.173905 -0.708110 -4.241315 -0.862798 2.359899 -0.565205 5.928111 13.364121 -0.709953 -18.346071 5.443696 -0.000004 0.000008 -19.066237 326.483780 -109.684963 0.000004 -0.000000 -10.615794 914.691994 -185.155814 179.096931 0.000007 -0.000006 -13.110294 -2313.805593 171.859499 -199.999263 -2.636603 -1.718804 6.889709 181.421750 -181.546865 169.389497 -4.139100 -0.000006 0.000002 217.528384 -123.928769 625.219889 -0.000002 -0.000005 -10.471800 -7.908389 -3.876009 -359.741392 0.000002 -0.000006 -12.281898 0.179260 11.275376 28.495874 2.273398 0.176707 -2.517998 -509.199127 -146.444488 -164.229645 0.000001 0.000000 -20.456398 816.180995 134.990260 -122.670116 -0.000005 -0.000003 -16.635300 -311.454604 9.725438 25.039817 -1.914800 0.018111 -2.699303 73.846653 205.859825 97.388013 0.000010 -0.000003 -20.148895 -844.821891 -244.798406 175.097924 -0.000000 -0.000004 -16.838301 1071.781482 10.191492 3.011652
-3.780399 -7.953295 42.872005 2878.938068 -3.860312 0.173067 -0.673003 0.623899 5.369216 1.728781 13.894772 -7.115156 0.000000 -0.000003 4.415007 17.382399 -4.370235 0.761321 -0.000001 0.000000 10.273299 -17.372002 3.754809 8.370947 -0.000001 -0.000005 2.173899 -0.648461 -4.168534 -1.841052 2.359900 -0.565201 5.928094 13.844329 -1.594115 -19.621344 5.443693 -0.000000 0.000001 -25.221945 325.206808 -114.831558 -0.000003 -0.000002 -10.615794 921.846262 -181.916092 177.899121 -0.000004 -0.000005 -13.110294 -2323.342504 172.265731 -199.372566 -2.636604 -1.718799 6.889698 181.001106 -181.899317 171.597001 -4.139096 0.000002 0.000005 224.702309 -122.637795 633.754292 -0.000001 0.000002 -10.471804 -10.589316 -4.229304 -359.894443 0.000004 -0.000009 -12.281904 1.347869 10.952348 28.048520 2.273399 0.176704 -2.517997 -511.726406 -148.410967 -165.153086 0.000003 -0.000001 -20.456396 822.556239 134.581788 -130.340896 -0.000005 0.000000 -16.635300 -316.556920 12.140870 22.356131 -1.914801 0.018109 -2.699297 67.623073 203.979392 91.608567 0.000005 0.000001 -20.148897 -833.199313 -246.558190 167.174795 0.000001 -0.000003 -16.838301 1069.620957 10.003762 2.423351
-4.105700 -8.026297 43.946804 2885.610452 -3.456872 1.351629 -0.673006 0.623892 5.369209 21.668686 10.671842 -11.529644 0.000002 -0.000002 4.415003 -1.941639 -5.361025 -0.774390 -0.000002 0.000001 10.273311 -23.650273 2.945990 9.371647 -0.000002 -0.000005 2.173905 -0.626368 -3.972818 -2.786565 2.359899 -0.565202 5.928103 14.588712 -2.755904 -20.537182 5.443693 -0.000000 0.000002 -31.002806 324.617444 -119.822514 0.000007 -0.000006 -10.615797 928.309370 -178.480506 177.716454 -0.000001 -0.000004 -13.110310 -2332.557468 172.854384 -199.475743 -2.636603 -1.718803 6.889701 180.856251 -181.987863 173.512022 -4.139090 0.000008 -0.000002 229.857285 -123.029069 640.926210 0.000004 -0.000004 -10.471802 -13.840364 -4.286341 -359.977170 0.000002 -0.000005 -12.281902 2.415528 10.701797 27.935060 2.273397 0.176699 -2.517999 -514.298109 -150.601600 -166.282062 0.000002 -0.000002 -20.456396 831.982501 134.221523 -140.567602 -0.000004 -0.000003 -16.635302 -323.452679 16.091504 19.041116 -1.914798 0.018103 -2.699297 61.415545 201.873959 86.175301 0.000004 -0.000004 -20.148903 -813.598310 -248.721284 151.800790 0.000000 -0.000001 -16.838299 1064.327287 9.507594 2.737061
-4.482800 -8.111593 45.148903 2892.505118 -2.859065 2.375479 -0.673004 0.623899 5.369209 21.257149 9.452487 -12.683159 0.000001 0.000004 4.415008 -1.491712 -5.316302 -0.784154 -0.000001 -0.000003 10.273296 -29.922236 2.286885 10.155580 0.000000 -0.000007 2.173896 -0.531849 -3.698648 -3.766756 2.359901 -0.565200 5.928099 15.420998 -4.184191 -21.412979 5.443689 -0.000002 0.000002 -35.458944 324.833634 -123.767563 0.000004 -0.000005 -10.615805 933.582822 -175.144287 178.344763 -0.000001 -0.000001 -13.110299 -2340.539063 173.441931 -199.440404 -2.636602 -1.718803 6.889695 180.211973 -181.690709 174.745732 -4.139093 0.000006 -0.000007 232.978190 -125.143491 646.139119 0.000002 -0.000005 -10.471804 -16.229984 -4.138807 -359.803410 0.000000 -0.000000 -12.281905 2.410737 10.583807 27.766553 2.273398 0.176703 -2.517990 -516.952102 -152.960461 -167.452456 0.000001 -0.000005 -20.456398 845.626870 134.906031 -153.340711 -0.000004 -0.000003 -16.635302 -332.168984 21.898473 15.155853 -1.914798 0.018104 -2.699294 55.300637 199.571775 80.937024 0.000009 -0.000002 -20.148903 -786.024781 -248.646589 128.268658 0.000000 -0.000010 -16.838303 1057.708451 8.691493 1.386400
-4.886999 -8.223894 46.445103 2899.191710 -2.057254 3.324254 -0.673001 0.623893 5.369211 20.990693 8.093771 -13.534505 0.000001 0.000002 4.415009 -1.109419 -5.268755 -0.794264 -0.000002 -0.000002 10.273307 -34.096912 2.219324 9.695162 0.000000 -0.000004 2.173893 -2.307644 -3.469849 -3.814193 2.359898 -0.565204 5.928105 15.754750 -4.851924 -22.374243 5.443693 0.000001 -0.000006 -38.175211 324.549033 -127.479429 0.000002 -0.000003 -10.615792 937.980043 -172.261701 179.583814 -0.000003 -0.000008 -13.110294 -2347.222157 173.916601 -199.601651 -2.636600 -1.718807 6.889712 180.702435 -181.142559 175.430445 -4.139091 0.000001 0.000006 233.162004 -127.705030 649.754311 0.000004 -0.000008 -10.471802 -17.687012 -3.825028 -359.332345 0.000000 -0.000006 -12.281898 1.928034 10.718730 27.295661 2.273399 0.176701 -2.517999 -518.196289 -155.224778 -168.266737 -0.000002 0.000000 -20.456392 861.888075 137.596770 -166.724494 -0.000003 -0.000000 -16.635296 -342.889758 29.209908 11.342951 -1.914798 0.018101 -2.699297 49.803182 197.355434 76.071382 0.000010 -0.000003 -20.148905 -760.864769 -244.500446 106.012971 -0.000003 -0.000000 -16.838299 1050.325836 7.844885 -1.024119
